<svg class="svg-icon" style="width: 1em; height: 1em;vertical-align: middle;fill: currentColor;overflow: hidden;" viewBox="0 0 1024 1024" version="1.1" xmlns="http://www.w3.org/2000/svg"><path d="M471.3 878H261c-16.5 0-30-13.5-30-30V176c0-16.5 13.5-30 30-30h502c16.5 0 30 13.5 30 30v250.4c0 16.6 13.4 30 30 30s30-13.4 30-30V176c0-49.6-40.4-90-90-90H261c-49.6 0-90 40.4-90 90v672c0 49.6 40.4 90 90 90h210.3c16.6 0 30-13.4 30-30s-13.4-30-30-30z"  /><path d="M857.3 883h-13.5c0.1-1 0.2-2.1 0.2-3.2v-73.9c0-6.6-2.6-13-7.3-17.7L771 722.6l65.7-65.7c4.7-4.7 7.3-11 7.3-17.7V559h13.3c13.8 0 25-11.2 25-25s-11.2-25-25-25H612c-13.8 0-25 11.2-25 25s11.2 25 25 25h13.3v78.2c0 6.6 2.6 13 7.3 17.7l67.7 67.7-67.7 67.7c-4.7 4.7-7.3 11-7.3 17.7v71.9c0 1.1 0.1 2.1 0.2 3.2H612c-13.8 0-25 11.2-25 25s11.2 25 25 25h245.3c13.8 0 25-11.2 25-25s-11.2-25.1-25-25.1z m-182-324H794v69.8l-58.4 58.4-60.4-60.4V559z m0 320.8v-61.6l60.4-60.4 58.4 58.4v63.6c0 1.1 0.1 2.1 0.2 3.2H675.1c0.1-1 0.2-2.1 0.2-3.2zM709.8 236.8H314.2c-16.6 0-30 13.4-30 30s13.4 30 30 30h395.7c16.6 0 30-13.4 30-30s-13.5-30-30.1-30zM739.8 430.2c0-16.6-13.4-30-30-30H314.2c-16.6 0-30 13.4-30 30s13.4 30 30 30h395.7c16.5 0 29.9-13.4 29.9-30zM444.2 563.7h-130c-16.6 0-30 13.4-30 30s13.4 30 30 30h130c16.6 0 30-13.4 30-30s-13.5-30-30-30zM444.2 727.2h-130c-16.6 0-30 13.4-30 30s13.4 30 30 30h130c16.6 0 30-13.4 30-30s-13.5-30-30-30z"  /></svg>